<?xml version="1.0" encoding="UTF-8"?>
<!DOCTYPE svg PUBLIC "-//W3C//DTD SVG 1.1//EN" "http://www.w3.org/Graphics/SVG/1.1/DTD/svg11.dtd">
<!-- Creator: CorelDRAW X7 -->
<svg xmlns="http://www.w3.org/2000/svg" xml:space="preserve" width="512px" height="512px" version="1.1" style="shape-rendering:geometricPrecision; text-rendering:geometricPrecision; image-rendering:optimizeQuality; fill-rule:evenodd; clip-rule:evenodd"
viewBox="0 0 75615 75615"
 xmlns:xlink="http://www.w3.org/1999/xlink">
 <defs>
  <style type="text/css">
   <![CDATA[
    .fil0 {fill:none}
    .fil1 {fill:#FF9800}
   ]]>
  </style>
 </defs>
 <g id="Layer_x0020_1">
  <metadata id="CorelCorpID_0Corel-Layer"/>
  <rect class="fil0" width="75615" height="75615"/>
  <path class="fil1" d="M44358 35445l2362 0 -1181 2362 1181 2362 -2362 0 -6550 0c-1305,0 -2363,-1057 -2363,-2362 0,-1305 1058,-2362 2363,-2362l6550 0zm-6550 -16538c-10440,0 -18903,8462 -18903,18900 0,10406 8411,18847 18903,18900 3888,-35 7022,-3199 7022,-7087 0,-3892 -3137,-7052 -7022,-7088 -2610,0 -4726,-2115 -4726,-4725 0,-2609 2116,-4725 4726,-4725l0 0c1305,0 2362,-1057 2362,-2362 0,-1290 -1033,-2338 -2316,-2362l-46 0c-2419,0 -4838,922 -6683,2767 -3691,3690 -3691,9674 0,13364 1780,1780 4110,2716 6617,2770 1302,-12 2363,1067 2363,2362 0,1275 -1028,2339 -2363,2361 -7805,-35 -14112,-6372 -14112,-14175 0,-7829 6348,-14176 14178,-14176 7830,0 14177,6347 14177,14176 0,3915 -1586,7459 -4152,10024 -922,922 -921,2418 1,3340 922,923 2417,923 3340,0 3420,-3420 5537,-8145 5537,-13364 0,-10438 -8464,-18900 -18903,-18900z"/>
 </g>
</svg>
