<?xml version="1.0" encoding="UTF-8"?>
<!DOCTYPE svg PUBLIC "-//W3C//DTD SVG 1.1//EN" "http://www.w3.org/Graphics/SVG/1.1/DTD/svg11.dtd">
<!-- Creator: CorelDRAW X7 -->
<svg xmlns="http://www.w3.org/2000/svg" xml:space="preserve" width="1519px" height="512px" version="1.1" style="shape-rendering:geometricPrecision; text-rendering:geometricPrecision; image-rendering:optimizeQuality; fill-rule:evenodd; clip-rule:evenodd"
viewBox="0 0 664774 224319"
 xmlns:xlink="http://www.w3.org/1999/xlink">
 <defs>
  <style type="text/css">
   <![CDATA[
    .fil0 {fill:none}
    .fil2 {fill:#FF9800}
    .fil1 {fill:#3A596D;fill-rule:nonzero}
   ]]>
  </style>
 </defs>
 <g id="Layer_x0020_1">
  <metadata id="CorelCorpID_0Corel-Layer"/>
  <rect class="fil0" width="664774" height="224319"/>
  <g id="_2685671303632">
   <path class="fil1" d="M207160 114090c-1483,-566 -2817,-1189 -3996,-1869 -1176,-673 -2182,-1483 -3007,-2421 -833,-938 -1480,-2065 -1935,-3373 -461,-1309 -689,-2884 -689,-4718 0,-2227 382,-4190 1144,-5894 766,-1703 1847,-3137 3243,-4290 1398,-1155 3078,-2031 5046,-2620 1964,-592 4170,-884 6614,-884 2229,0 4314,194 6257,587 1944,395 3988,964 6129,1706 -265,2530 -964,5019 -2099,7465 -655,-260 -1321,-523 -1999,-783 -676,-265 -1397,-482 -2162,-660 -764,-175 -1626,-313 -2584,-423 -964,-108 -2054,-164 -3280,-164 -741,0 -1492,66 -2256,196 -769,132 -1454,372 -2067,719 -607,353 -1115,863 -1504,1542 -393,677 -592,1560 -592,2651 0,876 156,1608 459,2197 308,584 721,1090 1245,1507 525,414 1114,764 1770,1048 655,282 1308,556 1963,818l3932 1507c1661,655 3167,1330 4522,2027 1351,703 2497,1565 3437,2590 941,1027 1671,2269 2194,3733 528,1462 789,3267 789,5406 0,2224 -404,4256 -1211,6090 -810,1834 -1979,3406 -3507,4716 -1527,1310 -3418,2339 -5668,3080 -2248,740 -4836,1114 -7760,1114 -1441,0 -2730,-47 -3869,-133 -1135,-87 -2213,-227 -3240,-426 -1027,-194 -2042,-447 -3048,-751 -1003,-308 -2054,-680 -3143,-1115 133,-1266 372,-2587 720,-3962 348,-1379 762,-2764 1244,-4160 1837,742 3561,1298 5177,1671 1616,371 3341,555 5174,555 2753,0 4915,-514 6486,-1540 1571,-1023 2358,-2586 2358,-4681 0,-1048 -182,-1920 -557,-2622 -371,-694 -849,-1289 -1440,-1769 -590,-477 -1257,-881 -1998,-1209 -746,-327 -1507,-643 -2295,-951l-3997 -1507zm190313 -25288c744,-86 1598,-173 2557,-260 959,-86 1813,-130 2554,-130 1661,0 3408,130 5242,390l10284 37142 10420 -37142c871,-128 1714,-218 2521,-260 809,-42 1625,-64 2454,-64 788,0 1587,22 2394,64 810,42 1648,132 2524,260l-15201 47102c-917,129 -1801,227 -2655,293 -852,65 -1757,100 -2718,100 -873,0 -1727,-35 -2555,-100 -828,-66 -1744,-164 -2752,-293l-15069 -47102zm49986 33016c177,2623 1095,4521 2753,5701 1661,1179 3843,1768 6549,1768 1491,0 3004,-141 4554,-425 1554,-284 3025,-689 4421,-1212 485,875 899,1920 1250,3144 348,1220 543,2530 586,3931 -3405,1308 -7250,1965 -11530,1965 -3144,0 -5841,-440 -8091,-1313 -2247,-870 -4083,-2083 -5498,-3634 -1422,-1551 -2472,-3396 -3147,-5532 -679,-2143 -1016,-4479 -1016,-7013 0,-2491 348,-4827 1048,-7010 700,-2184 1738,-4084 3115,-5695 1374,-1619 3076,-2896 5109,-3834 2029,-938 4397,-1409 7103,-1409 2364,0 4455,414 6293,1245 1834,830 3394,1965 4682,3406 1290,1441 2261,3155 2918,5141 657,1989 982,4117 982,6386 0,830 -33,1653 -100,2458 -64,807 -141,1453 -225,1932l-21756 0zm13303 -6484c-87,-2096 -670,-3789 -1738,-5076 -1069,-1289 -2565,-1932 -4487,-1932 -2184,0 -3845,608 -4982,1832 -1134,1223 -1813,2950 -2031,5176l13238 0zm16116 -13299c655,-132 1279,-230 1868,-295 588,-63 1231,-96 1932,-96 655,0 1299,44 1932,131 632,87 1255,194 1865,327 133,215 255,533 363,952 107,412 208,849 295,1305 85,462 162,919 231,1378 61,456 117,840 161,1149 959,-1359 2140,-2569 3539,-3640 1394,-1067 3141,-1602 5242,-1602 433,0 938,20 1507,62 566,43 982,111 1242,197 91,440 154,941 196,1507 44,568 62,1157 62,1770 0,742 -29,1551 -95,2425 -65,871 -184,1704 -358,2492 -481,-93 -1017,-136 -1607,-136 -591,0 -947,0 -1080,0 -742,0 -1575,80 -2489,232 -920,150 -1794,556 -2620,1209 -832,655 -1516,1640 -2063,2950 -547,1307 -818,3143 -818,5504l0 16111c-789,131 -1575,217 -2363,262 -786,47 -1551,68 -2293,68 -741,0 -1494,-21 -2259,-68 -764,-45 -1560,-131 -2390,-262l0 -33932zm26201 -14016c1576,-263 3105,-393 4590,-393 1527,0 3079,130 4650,393l0 17290c658,-1175 1748,-2147 3277,-2914 1528,-763 3275,-1145 5243,-1145 1964,0 3784,350 5468,1046 1684,702 3137,1761 4355,3177 1224,1420 2185,3202 2885,5342 698,2139 1050,4669 1050,7598 0,2834 -440,5381 -1315,7632 -870,2247 -2138,4159 -3794,5731 -1663,1571 -3691,2786 -6096,3632 -2402,854 -5113,1282 -8123,1282 -962,0 -1974,-47 -3046,-133 -1071,-87 -2152,-204 -3245,-360 -1091,-152 -2139,-348 -3145,-587 -1001,-244 -1921,-517 -2754,-819l0 -46772zm9240 40547c525,176 1080,283 1671,328 592,42 1192,66 1800,66 2839,0 5070,-831 6686,-2489 1614,-1661 2420,-4258 2420,-7794 0,-3146 -498,-5537 -1504,-7177 -1006,-1634 -2706,-2454 -5113,-2454 -1742,0 -3174,576 -4289,1735 -1114,1157 -1671,2982 -1671,5472l0 12313zm36953 -6748c173,2623 1088,4521 2749,5701 1658,1179 3842,1768 6551,1768 1485,0 3001,-141 4552,-425 1552,-284 3024,-689 4425,-1212 480,875 897,1920 1242,3144 349,1220 547,2530 590,3931 -3408,1308 -7247,1965 -11530,1965 -3143,0 -5843,-440 -8091,-1313 -2250,-870 -4083,-2083 -5503,-3634 -1417,-1551 -2468,-3396 -3144,-5532 -678,-2143 -1015,-4479 -1015,-7013 0,-2491 348,-4827 1051,-7010 694,-2184 1733,-4084 3108,-5695 1377,-1619 3078,-2896 5111,-3834 2030,-938 4399,-1409 7108,-1409 2357,0 4453,414 6290,1245 1831,830 3399,1965 4683,3406 1289,1441 2260,3155 2914,5141 655,1989 984,4117 984,6386 0,830 -32,1653 -99,2458 -63,807 -138,1453 -230,1932l-21746 0zm13295 -6484c-86,-2096 -664,-3789 -1736,-5076 -1070,-1289 -2566,-1932 -4488,-1932 -2183,0 -3841,608 -4978,1832 -1135,1223 -1812,2950 -2030,5176l13232 0zm16119 -13299c610,-132 1223,-230 1836,-295 606,-63 1286,-96 2028,-96 741,0 1399,33 1964,96 567,65 1163,163 1769,295 133,220 253,538 360,952 110,415 208,849 297,1309 84,459 164,905 232,1343 62,435 117,807 162,1114 434,-656 961,-1311 1571,-1966 611,-653 1322,-1244 2131,-1768 807,-524 1712,-950 2715,-1279 1006,-328 2120,-490 3346,-490 3837,0 6737,1046 8680,3144 1942,2099 2911,5394 2911,9890l0 21620c-1571,262 -3121,393 -4649,393 -1529,0 -3081,-131 -4652,-393l0 -19129c0,-2361 -361,-4176 -1079,-5439 -723,-1267 -1976,-1898 -3769,-1898 -743,0 -1505,112 -2293,327 -787,217 -1498,643 -2130,1277 -631,634 -1145,1516 -1539,2653 -390,1136 -589,2619 -589,4453l0 17756c-1572,262 -3124,393 -4650,393 -1530,0 -3078,-131 -4652,-393l0 -33869zm-343159 7077l-4259 0 -324 -1309 12246 -15653 1510 0 0 9887 7929 0c127,654 215,1246 260,1768 42,526 64,1074 64,1640 0,610 -22,1197 -64,1770 -45,567 -133,1199 -260,1897l-7929 0 0 13297c0,1356 107,2446 327,3274 222,832 535,1484 952,1969 414,477 926,804 1539,980 610,175 1330,262 2159,262 657,0 1298,-56 1935,-164 633,-107 1190,-205 1669,-295 306,831 521,1691 656,2587 133,897 196,1691 196,2394 0,478 -12,879 -31,1210 -24,329 -56,642 -101,950 -2009,478 -4084,721 -6221,721 -3974,0 -7010,-931 -9106,-2783 -2101,-1858 -3147,-4882 -3147,-9073l0 -15329zm41077 11265c-523,-86 -1092,-161 -1704,-229 -610,-68 -1159,-96 -1638,-96 -2141,0 -3834,382 -5076,1144 -1244,765 -1867,2000 -1867,3702 0,1138 241,2008 718,2621 480,610 1062,1062 1738,1343 677,284 1397,457 2164,523 763,66 1427,98 1995,98 655,0 1313,-56 1966,-164 653,-107 1223,-207 1704,-297l0 -8645zm0 -6743c0,-1051 -175,-1902 -523,-2556 -350,-655 -833,-1168 -1441,-1539 -613,-373 -1367,-621 -2263,-756 -895,-132 -1890,-194 -2977,-194 -2363,0 -4870,457 -7534,1372 -616,-1136 -1074,-2205 -1378,-3206 -309,-1008 -458,-2204 -458,-3605 1920,-655 3840,-1134 5766,-1441 1920,-306 3712,-456 5368,-456 4545,0 8093,1090 10649,3273 2552,2184 3832,5676 3832,10483l0 19649c-1532,479 -3387,939 -5573,1375 -2181,437 -4649,657 -7400,657 -2229,0 -4266,-196 -6126,-589 -1852,-393 -3449,-1048 -4781,-1968 -1333,-916 -2360,-2095 -3081,-3536 -717,-1441 -1080,-3212 -1080,-5307 0,-2094 449,-3850 1345,-5272 893,-1419 2054,-2555 3469,-3407 1419,-851 3008,-1464 4750,-1834 1750,-371 3495,-556 5243,-556 1265,0 2664,68 4193,193l0 -780zm17295 -11597c656,-132 1275,-230 1866,-295 590,-65 1236,-96 1932,-96 656,0 1302,42 1934,129 631,88 1255,196 1866,329 130,215 252,534 363,950 107,412 202,852 292,1305 88,463 163,922 229,1378 63,459 119,842 166,1149 959,-1354 2137,-2566 3537,-3638 1396,-1069 3145,-1602 5241,-1602 435,0 938,21 1507,63 566,42 980,111 1246,196 87,438 148,941 197,1507 40,568 63,1158 63,1768 0,745 -35,1554 -101,2425 -62,871 -184,1704 -357,2492 -482,-91 -1016,-136 -1607,-136 -587,0 -948,0 -1078,0 -745,0 -1573,80 -2492,232 -915,150 -1790,556 -2619,1212 -828,652 -1519,1637 -2061,2950 -550,1306 -823,3140 -823,5501l0 16111c-785,134 -1573,217 -2359,262 -783,47 -1547,68 -2292,68 -741,0 -1492,-21 -2261,-68 -763,-45 -1561,-128 -2389,-262l0 -33930zm25745 -14016c1482,-262 3012,-393 4586,-393 1574,0 3123,131 4651,393l0 47883c-1528,262 -3077,393 -4651,393 -1574,0 -3104,-131 -4586,-393l0 -47883zm10546 30127l8388 -16111c1703,-262 3427,-391 5174,-391 1658,0 3279,129 4846,391l-8647 15657 10088 18210c-1789,262 -3514,393 -5173,393 -1531,0 -3147,-131 -4848,-393l-9828 -17756zm31187 3675c173,2618 1090,4516 2751,5696 1658,1179 3843,1768 6549,1768 1486,0 3001,-141 4551,-425 1553,-281 3028,-689 4426,-1210 478,873 897,1918 1240,3142 353,1220 547,2532 594,3931 -3408,1308 -7249,1965 -11529,1965 -3146,0 -5844,-440 -8094,-1310 -2247,-873 -4081,-2086 -5501,-3637 -1420,-1551 -2468,-3395 -3146,-5532 -675,-2143 -1015,-4477 -1015,-7013 0,-2489 351,-4825 1051,-7008 696,-2184 1735,-4084 3110,-5695 1375,-1616 3078,-2896 5111,-3834 2028,-937 4397,-1408 7106,-1408 2358,0 4456,414 6287,1242 1836,833 3399,1968 4686,3406 1291,1441 2260,3155 2916,5143 655,1987 982,4118 982,6384 0,833 -30,1653 -98,2460 -67,807 -142,1454 -229,1935l-21748 0zm13297 -6486c-88,-2096 -664,-3789 -1738,-5079 -1069,-1289 -2566,-1932 -4485,-1932 -2186,0 -3844,611 -4978,1834 -1138,1224 -1813,2948 -2033,5177l13234 0z"/>
   <path class="fil2" d="M131600 105158l7010 0 -3504 7007 3504 7010 -7010 0 -19432 0c-3871,0 -7009,-3138 -7009,-7010 0,-3870 3138,-7007 7009,-7007l19432 0zm-19432 -49066c-30972,0 -56080,25105 -56080,56073 0,30873 24953,55915 56080,56074 11537,-105 20834,-9491 20834,-21025 0,-11549 -9308,-20922 -20834,-21029 -7743,0 -14020,-6277 -14020,-14020 0,-7741 6277,-14017 14020,-14017l0 -1c3871,0 7009,-3135 7009,-7007 0,-3826 -3064,-6935 -6872,-7009l-137 0c-7176,3 -14352,2738 -19825,8212 -10951,10947 -10951,28699 0,39647 5278,5279 12192,8058 19629,8217 3862,-35 7010,3165 7010,7008 2,3784 -3050,6941 -7010,7006 -23154,-106 -41865,-18906 -41865,-42056 0,-23226 18830,-42056 42061,-42056 23230,0 42061,18830 42061,42056 0,11616 -4707,22130 -12317,29740 -2738,2737 -2734,7175 1,9910 2737,2739 7172,2736 9911,0 10145,-10147 16425,-24165 16425,-39650 0,-30968 -25109,-56073 -56081,-56073z"/>
  </g>
 </g>
</svg>
